<?xml version="1.0" encoding="UTF-8" standalone="no"?>
<svg
   xmlns:dc="http://purl.org/dc/elements/1.1/"
   xmlns:cc="http://creativecommons.org/ns#"
   xmlns:rdf="http://www.w3.org/1999/02/22-rdf-syntax-ns#"
   xmlns:svg="http://www.w3.org/2000/svg"
   xmlns="http://www.w3.org/2000/svg"
   xmlns:sodipodi="http://sodipodi.sourceforge.net/DTD/sodipodi-0.dtd"
   xmlns:inkscape="http://www.inkscape.org/namespaces/inkscape"
   viewBox="0 0 576 512"
   version="1.1"
   id="svg4"
   sodipodi:docname="logo.svg"
   inkscape:version="1.0.1 (3bc2e813f5, 2020-09-07)">
  <metadata
     id="metadata10">
    <rdf:RDF>
      <cc:Work
         rdf:about="">
        <dc:format>image/svg+xml</dc:format>
        <dc:type
           rdf:resource="http://purl.org/dc/dcmitype/StillImage" />
      </cc:Work>
    </rdf:RDF>
  </metadata>
  <defs
     id="defs8" />
  <sodipodi:namedview
     pagecolor="#ffffff"
     bordercolor="#666666"
     borderopacity="1"
     objecttolerance="10"
     gridtolerance="10"
     guidetolerance="10"
     inkscape:pageopacity="0"
     inkscape:pageshadow="2"
     inkscape:window-width="1920"
     inkscape:window-height="1017"
     id="namedview6"
     showgrid="false"
     inkscape:zoom="1.6953125"
     inkscape:cx="288"
     inkscape:cy="256"
     inkscape:window-x="-8"
     inkscape:window-y="-8"
     inkscape:window-maximized="1"
     inkscape:current-layer="svg4"
     inkscape:document-rotation="0" />
  <!--! Font Awesome Pro 6.4.2 by @fontawesome - https://fontawesome.com License - https://fontawesome.com/license (Commercial License) Copyright 2023 Fonticons, Inc. -->
  <path
     d="m 142.4,22.584855 c 5.6,17.326271 -3.5,35.993264 -20.2,41.768688 L 96,73.326076 V 198.01334 c 0,54.66026 43,99.00726 96,99.00726 53,0 96,-44.347 96,-99.00726 V 73.326076 L 261.9,64.353543 C 245.1,58.578119 236.1,39.911126 241.7,22.584855 247.3,5.2585846 265.4,-4.0233459 282.2,1.7520775 L 308.3,10.72461 C 334.4,19.697143 352,44.861488 352,73.326076 V 198.01334 c 0,79.61834 -54.6,146.03571 -127.3,161.60873 6.3,57.6511 53.7,102.41063 111.3,102.41063 61.9,0 112,-51.66941 112,-115.50847 v -72.91472 c -28.3,-12.6853 -48,-41.76869 -48,-75.59617 0,-45.58459 35.8,-82.50605 80,-82.50605 44.2,0 80,36.92146 80,82.50605 0,33.82748 -19.7,62.91087 -48,75.59617 v 72.91472 c 0,100.24485 -78.8,181.51331 -176,181.51331 -92.9,0 -168.9,-74.15231 -175.5,-168.20921 C 87.2,344.66785 32,278.04421 32,198.01334 V 73.326076 C 32,44.964621 49.6,19.697143 75.8,10.72461 l 26.1,-8.9725325 c 16.8,-5.7754234 34.9,3.6096397 40.5,20.8327775 z M 480,231.01576 a 32,33.00242 0 1 0 0,-66.00484 32,33.00242 0 1 0 0,66.00484 z"
     id="path2"
     style="fill:#0062ff;fill-opacity:1;stroke:none;stroke-width:1.01554"
     inkscape:export-xdpi="93.090912"
     inkscape:export-ydpi="93.090912" />
</svg>
